<svg width="160" height="160" viewBox="0 0 160 160" fill="none" xmlns="http://www.w3.org/2000/svg">
<path d="M77.4814 3.89195C78.6636 2.06514 81.3364 2.06514 82.5186 3.89195L95.9808 24.6946C96.7523 25.8868 98.254 26.3748 99.579 25.8637L122.698 16.9469C124.728 16.1638 126.89 17.7349 126.773 19.9077L125.436 44.6503C125.36 46.0683 126.288 47.3457 127.66 47.7111L151.605 54.086C153.707 54.6458 154.533 57.1878 153.161 58.8767L137.537 78.1083C136.641 79.2105 136.641 80.7895 137.537 81.8917L153.161 101.123C154.533 102.812 153.707 105.354 151.605 105.914L127.66 112.289C126.288 112.654 125.36 113.932 125.436 115.35L126.773 140.092C126.89 142.265 124.728 143.836 122.698 143.053L99.579 134.136C98.254 133.625 96.7523 134.113 95.9808 135.305L82.5186 156.108C81.3364 157.935 78.6636 157.935 77.4814 156.108L64.0192 135.305C63.2477 134.113 61.746 133.625 60.421 134.136L37.3024 143.053C35.2722 143.836 33.1098 142.265 33.2272 140.092L34.5636 115.35C34.6402 113.932 33.7121 112.654 32.3398 112.289L8.39525 105.914C6.29253 105.354 5.46657 102.812 6.83865 101.123L22.4631 81.8917C23.3586 80.7895 23.3586 79.2105 22.4631 78.1083L6.83865 58.8767C5.46657 57.1878 6.29252 54.6458 8.39525 54.086L32.3398 47.7111C33.7121 47.3457 34.6402 46.0683 34.5636 44.6503L33.2272 19.9077C33.1098 17.7349 35.2722 16.1638 37.3024 16.9469L60.421 25.8637C61.746 26.3748 63.2477 25.8868 64.0192 24.6946L77.4814 3.89195Z" fill="url(#paint0_linear_1560_124)"/>
<path d="M51.1249 71.2783L69.1399 55.0147L57.4575 50.8723L59.0403 46.4086L76.7207 52.6778L75.2864 56.723L57.0881 73.3927L51.1249 71.2783ZM79.9196 81.9201C76.9438 80.865 75.057 78.9528 74.2592 76.1836C73.4847 73.4227 73.8229 69.9964 75.2737 65.9047C76.7246 61.813 78.608 58.9738 80.924 57.3873C83.2716 55.7857 85.9333 55.5125 88.9091 56.5677C91.8849 57.6229 93.7683 59.5076 94.5593 62.2221C95.3818 64.9215 95.0676 68.317 93.6167 72.4088C92.1659 76.5005 90.2585 79.3704 87.8944 81.0184C85.5537 82.6747 82.8954 82.9753 79.9196 81.9201ZM81.4776 77.5262C82.826 78.0043 84.0606 77.6962 85.1814 76.6018C86.3105 75.4842 87.3903 73.4724 88.4207 70.5664C89.4511 67.6603 89.8676 65.4525 89.67 63.943C89.4724 62.4336 88.6995 61.4398 87.351 60.9616C86.0026 60.4835 84.7763 60.7684 83.6719 61.8162C82.5676 62.8641 81.5002 64.841 80.4697 67.7471C79.4393 70.6531 79.0105 72.8958 79.1834 74.475C79.3644 76.031 80.1292 77.048 81.4776 77.5262ZM101.327 90.2566L98.6491 87.0695L121.701 67.4493L124.344 70.6241L101.327 90.2566ZM101.7 78.0229C99.6772 77.3057 98.347 76.075 97.7092 74.331C97.0796 72.5636 97.1729 70.5291 97.989 68.2275C98.8051 65.926 100.01 64.2988 101.604 63.3461C103.222 62.4016 105.03 62.2838 107.029 62.9927C109.029 63.7017 110.343 64.9398 110.973 66.7072C111.634 68.4595 111.56 70.4749 110.752 72.7532C109.936 75.0548 108.715 76.6895 107.09 77.6572C105.496 78.6099 103.699 78.7318 101.7 78.0229ZM102.887 74.6751C103.561 74.9142 104.2 74.7742 104.802 74.2551C105.437 73.721 106.013 72.7217 106.533 71.257C107.052 69.7924 107.225 68.6761 107.053 67.9083C106.912 67.1254 106.504 66.6145 105.83 66.3754C105.132 66.1281 104.486 66.2523 103.892 66.7482C103.297 67.244 102.736 68.2358 102.209 69.7237C101.673 71.2349 101.475 72.3819 101.617 73.1647C101.766 73.9243 102.189 74.4278 102.887 74.6751ZM115.999 94.7132C113.977 93.9961 112.646 92.7654 112.009 91.0213C111.379 89.254 111.476 87.2079 112.301 84.883C113.117 82.5814 114.318 80.9659 115.904 80.0364C117.521 79.092 119.329 78.9742 121.329 79.6831C123.328 80.3921 124.646 81.6186 125.284 83.3627C125.945 85.115 125.872 87.1303 125.064 89.4087C124.24 91.7335 123.026 93.3839 121.424 94.3599C119.83 95.3126 118.022 95.4304 115.999 94.7132ZM117.199 91.3306C117.896 91.5779 118.546 91.442 119.149 90.923C119.752 90.4039 120.317 89.4004 120.845 87.9125C121.356 86.4711 121.529 85.3549 121.365 84.5638C121.223 83.7809 120.816 83.27 120.141 83.0309C119.444 82.7836 118.798 82.9078 118.203 83.4037C117.609 83.8995 117.048 84.8913 116.52 86.3792C115.984 87.8904 115.787 89.0374 115.928 89.8202C116.078 90.5798 116.501 91.0833 117.199 91.3306Z" fill="#252160"/>
<path d="M38.7558 93.418C38.1311 93.2051 37.64 92.8792 37.2824 92.4404C36.928 91.9922 36.7134 91.4595 36.6385 90.8423C36.5762 90.2189 36.6693 89.5428 36.9177 88.8139C37.2887 87.7254 37.8583 86.9529 38.6266 86.4963C39.395 86.0398 40.2477 85.9711 41.1848 86.2905C41.7338 86.4776 42.173 86.7699 42.5024 87.1674C42.8444 87.5586 43.0454 88.0075 43.1053 88.5138L44.6052 84.1124L45.4713 84.4075L42.0601 94.4173L41.2082 94.1269L41.6534 92.8207C41.2935 93.1946 40.8571 93.4368 40.344 93.5472C39.8437 93.6514 39.3143 93.6083 38.7558 93.418ZM39.1162 92.7326C39.8166 92.9713 40.4589 92.9155 41.0432 92.5652C41.6306 92.2055 42.0776 91.576 42.384 90.6768C42.6904 89.7776 42.7193 89.0109 42.4705 88.3768C42.2218 87.7426 41.7472 87.3062 41.0468 87.0675C40.3463 86.8288 39.704 86.8846 39.1198 87.2349C38.545 87.5884 38.1044 88.2147 37.798 89.1139C37.4915 90.0131 37.4563 90.7829 37.6924 91.4233C37.9411 92.0575 38.4157 92.4939 39.1162 92.7326ZM47.2917 96.3269C46.2316 95.9656 45.5003 95.3678 45.098 94.5334C44.7083 93.6928 44.7006 92.7235 45.0747 91.6255C45.3167 90.9156 45.6668 90.3376 46.1252 89.8916C46.5835 89.4456 47.1057 89.1535 47.6917 89.0151C48.2871 88.8799 48.9019 88.9204 49.5361 89.1365C50.4542 89.4494 51.0673 89.9911 51.3752 90.7616C51.6831 91.5321 51.6596 92.438 51.3048 93.4792L51.1693 93.8767L45.8734 92.072C45.6115 92.9335 45.6192 93.6704 45.8966 94.2826C46.1866 94.8885 46.7244 95.3254 47.5101 95.5931C47.936 95.7383 48.3561 95.8075 48.7705 95.8008C49.1942 95.7973 49.6392 95.7007 50.1053 95.5109L50.2235 96.2801C49.8206 96.4703 49.3535 96.57 48.8222 96.5791C48.2941 96.5787 47.7839 96.4946 47.2917 96.3269ZM49.3132 89.8371C48.5938 89.5919 47.9532 89.6272 47.3914 89.9428C46.8422 90.2522 46.4135 90.7505 46.1053 91.4379L50.6062 92.9717C50.8453 92.208 50.8576 91.5519 50.6431 91.0034C50.4285 90.4549 49.9852 90.0661 49.3132 89.8371ZM57.9733 99.9671C57.3486 99.7542 56.8574 99.4283 56.4998 98.9895C56.1455 98.5413 55.9309 98.0085 55.8559 97.3914C55.7937 96.768 55.8868 96.0919 56.1351 95.363C56.5061 94.2745 57.0758 93.502 57.8441 93.0454C58.6124 92.5888 59.4652 92.5202 60.4022 92.8396C60.9512 93.0267 61.3904 93.319 61.7198 93.7165C62.0619 94.1077 62.2629 94.5565 62.3227 95.0629L63.8227 90.6615L64.6888 90.9566L61.2776 100.966L60.4257 100.676L60.8708 99.3698C60.511 99.7437 60.0745 99.9859 59.5615 100.096C59.0611 100.2 58.5317 100.157 57.9733 99.9671ZM58.3336 99.2817C59.0341 99.5204 59.6764 99.4646 60.2606 99.1143C60.8481 98.7546 61.295 98.1251 61.6014 97.2259C61.9079 96.3267 61.9367 95.56 61.688 94.9258C61.4393 94.2917 60.9647 93.8553 60.2642 93.6166C59.5638 93.3779 58.9214 93.4337 58.3372 93.7839C57.7625 94.1374 57.3219 94.7638 57.0154 95.663C56.709 96.5622 56.6738 97.332 56.9098 97.9724C57.1586 98.6065 57.6332 99.043 58.3336 99.2817ZM66.5092 102.876C65.449 102.515 64.7178 101.917 64.3154 101.082C63.9258 100.242 63.918 99.2725 64.2922 98.1745C64.5341 97.4646 64.8843 96.8867 65.3426 96.4407C65.801 95.9947 66.3232 95.7025 66.9091 95.5642C67.5045 95.429 68.1194 95.4695 68.7535 95.6856C69.6717 95.9985 70.2847 96.5402 70.5926 97.3107C70.9005 98.0812 70.8771 98.9871 70.5223 100.028L70.3868 100.426L65.0909 98.621C64.8289 99.4826 64.8367 100.219 65.114 100.832C65.4041 101.438 65.9419 101.874 66.7275 102.142C67.1535 102.287 67.5736 102.357 67.9879 102.35C68.4117 102.346 68.8566 102.25 69.3228 102.06L69.441 102.829C69.0381 103.019 68.571 103.119 68.0396 103.128C67.5115 103.128 67.0014 103.044 66.5092 102.876ZM68.5306 96.3862C67.8113 96.141 67.1707 96.1762 66.6088 96.4919C66.0597 96.8013 65.631 97.2996 65.3228 97.987L69.8236 99.5208C70.0627 98.7571 70.075 98.101 69.8605 97.5525C69.646 97.004 69.2027 96.6152 68.5306 96.3862ZM73.244 105.171C72.7328 104.997 72.2664 104.753 71.8448 104.441C71.4326 104.131 71.1234 103.783 70.9173 103.396L71.4474 102.863C71.7008 103.267 72.0038 103.602 72.3562 103.87C72.7118 104.129 73.0978 104.329 73.5143 104.471C74.1012 104.671 74.5768 104.717 74.9412 104.609C75.3183 104.494 75.5713 104.247 75.7003 103.869C75.8003 103.575 75.78 103.31 75.6393 103.072C75.4986 102.833 75.233 102.59 74.8425 102.34L73.704 101.636C72.6301 100.974 72.2528 100.174 72.5722 99.2372C72.7786 98.6314 73.1814 98.2246 73.7804 98.0168C74.3795 97.8089 75.0671 97.8372 75.8433 98.1017C76.3166 98.263 76.734 98.4951 77.0957 98.7979C77.4606 99.0913 77.7255 99.4299 77.8905 99.8136L77.332 100.336C77.1511 99.9683 76.9081 99.6584 76.603 99.4065C76.3012 99.1452 75.961 98.95 75.5823 98.821C75.0333 98.6339 74.5687 98.6023 74.1884 98.7263C73.8175 98.8534 73.566 99.1111 73.4337 99.4992C73.3337 99.7926 73.343 100.06 73.4616 100.301C73.5801 100.542 73.8268 100.779 74.2015 101.013L75.34 101.718C75.9069 102.069 76.2934 102.439 76.4995 102.826C76.7088 103.204 76.7329 103.629 76.5716 104.102C76.3619 104.718 75.956 105.118 75.3539 105.304C74.7519 105.49 74.0485 105.445 73.244 105.171ZM80.5921 107.675C79.92 107.446 79.3926 107.103 79.0099 106.645C78.6304 106.177 78.4 105.629 78.3189 104.999C78.2504 104.363 78.3387 103.685 78.5839 102.966C78.9548 101.877 79.5307 101.117 80.3116 100.686C81.1051 100.249 82.0082 100.203 83.021 100.548C83.4375 100.69 83.8219 100.911 84.174 101.21C84.5262 101.51 84.7912 101.848 84.9689 102.226L84.4056 102.763C84.2089 102.379 83.9659 102.069 83.6765 101.833C83.3904 101.588 83.0959 101.413 82.793 101.31C82.0263 101.049 81.3524 101.088 80.7715 101.429C80.1999 101.773 79.7626 102.39 79.4593 103.28C79.1561 104.17 79.1209 104.939 79.3538 105.589C79.5993 106.233 80.1054 106.685 80.8721 106.947C81.175 107.05 81.513 107.096 81.8863 107.086C82.2627 107.067 82.646 106.965 83.0362 106.781L83.1544 107.55C82.7864 107.731 82.3667 107.831 81.8954 107.85C81.4335 107.872 80.9991 107.814 80.5921 107.675ZM86.8992 109.825C86.2555 109.605 85.7454 109.273 85.3689 108.828C84.9957 108.373 84.7668 107.836 84.6824 107.215C84.6107 106.589 84.6991 105.911 84.9475 105.182C85.1926 104.463 85.5333 103.881 85.9695 103.438C86.4184 102.989 86.9295 102.699 87.5028 102.566C88.076 102.434 88.6845 102.478 89.3281 102.697C89.9813 102.92 90.4945 103.258 90.8677 103.713C91.241 104.168 91.4635 104.709 91.5352 105.335C91.6196 105.956 91.5392 106.625 91.294 107.345C91.0457 108.074 90.697 108.663 90.2481 109.112C89.8119 109.555 89.3072 109.842 88.7339 109.975C88.1639 110.097 87.5523 110.047 86.8992 109.825ZM87.1459 109.101C87.8464 109.339 88.4887 109.283 89.0729 108.933C89.6604 108.573 90.1073 107.944 90.4138 107.045C90.7202 106.146 90.7491 105.379 90.5003 104.745C90.2516 104.111 89.777 103.674 89.0765 103.435C88.3761 103.197 87.7338 103.253 87.1495 103.603C86.5748 103.956 86.1342 104.583 85.8278 105.482C85.5213 106.381 85.4861 107.151 85.7222 107.791C85.9709 108.425 86.4455 108.862 87.1459 109.101ZM91.9623 111.423L94.309 104.537L95.1609 104.828L94.7399 106.063C95.1219 105.686 95.5646 105.456 96.068 105.374C96.5713 105.292 97.0833 105.34 97.6039 105.517C99.2414 106.076 99.757 107.244 99.1505 109.024L97.6699 113.368L96.8038 113.073L98.2603 108.8C98.4925 108.118 98.5262 107.57 98.3614 107.154C98.1966 106.739 97.816 106.43 97.2197 106.226C96.5382 105.994 95.9166 106.02 95.3549 106.304C94.806 106.582 94.4106 107.076 94.1686 107.786L92.8284 111.718L91.9623 111.423ZM102.467 115.13C101.7 114.869 101.194 114.464 100.947 113.915C100.711 113.369 100.725 112.709 100.989 111.932L102.315 108.042L100.952 107.578L101.189 106.882L102.552 107.346L103.278 105.217L104.144 105.512L103.418 107.642L105.647 108.401L105.41 109.097L103.181 108.337L101.894 112.114C101.697 112.691 101.666 113.172 101.799 113.555C101.932 113.939 102.274 114.224 102.823 114.411C102.983 114.466 103.146 114.5 103.31 114.514C103.475 114.528 103.622 114.53 103.752 114.522L103.69 115.261C103.563 115.292 103.378 115.293 103.135 115.262C102.888 115.242 102.665 115.198 102.467 115.13ZM107.295 116.775C106.652 116.556 106.141 116.224 105.765 115.779C105.392 115.324 105.163 114.786 105.078 114.166C105.007 113.539 105.095 112.861 105.343 112.133C105.589 111.413 105.929 110.832 106.366 110.389C106.814 109.94 107.326 109.649 107.899 109.517C108.472 109.385 109.081 109.429 109.724 109.648C110.377 109.87 110.89 110.209 111.264 110.664C111.637 111.119 111.86 111.659 111.931 112.286C112.016 112.906 111.935 113.576 111.69 114.295C111.442 115.024 111.093 115.613 110.644 116.063C110.208 116.506 109.703 116.793 109.13 116.925C108.56 117.048 107.948 116.998 107.295 116.775ZM107.542 116.051C108.242 116.29 108.885 116.234 109.469 115.884C110.056 115.524 110.503 114.895 110.81 113.996C111.116 113.096 111.145 112.33 110.896 111.695C110.648 111.061 110.173 110.625 109.473 110.386C108.772 110.148 108.13 110.203 107.546 110.554C106.971 110.907 106.53 111.533 106.224 112.433C105.917 113.332 105.882 114.102 106.118 114.742C106.367 115.376 106.842 115.813 107.542 116.051Z" fill="#252160"/>
<defs>
<linearGradient id="paint0_linear_1560_124" x1="36.8" y1="6.4" x2="144" y2="160" gradientUnits="userSpaceOnUse">
<stop stop-color="#26E9CF"/>
<stop offset="1" stop-color="#25CDE1"/>
</linearGradient>
</defs>
</svg>
