<svg width="20" height="17" viewBox="0 0 20 17" fill="none" xmlns="http://www.w3.org/2000/svg">
<path d="M2.02165 9.90774H15.8188L11.5959 14.9799C11.4981 15.0975 11.4245 15.2333 11.3791 15.3793C11.3338 15.5254 11.3177 15.679 11.3318 15.8313C11.3601 16.139 11.5095 16.4227 11.7471 16.6202C11.9847 16.8176 12.291 16.9126 12.5986 16.8843C12.9062 16.8559 13.19 16.7065 13.3874 16.4689L19.2041 9.48894C19.2432 9.43342 19.2782 9.3751 19.3088 9.31444C19.3088 9.25628 19.3669 9.22138 19.3902 9.16321C19.4429 9.02982 19.4706 8.88784 19.4716 8.74441C19.4706 8.60098 19.4429 8.459 19.3902 8.32561C19.3902 8.26744 19.332 8.23254 19.3088 8.17438C19.2782 8.11372 19.2432 8.0554 19.2041 7.99988L13.3874 1.01988C13.278 0.888556 13.1411 0.782949 12.9862 0.710565C12.8314 0.638181 12.6626 0.600799 12.4916 0.601076C12.2198 0.600545 11.9564 0.695212 11.7471 0.868643C11.6293 0.966304 11.5319 1.08624 11.4606 1.22159C11.3892 1.35695 11.3452 1.50505 11.3312 1.65742C11.3171 1.80979 11.3333 1.96343 11.3787 2.10955C11.4241 2.25567 11.4979 2.39139 11.5959 2.50894L15.8188 7.58108H2.02165C1.71311 7.58108 1.41721 7.70364 1.19905 7.92181C0.98088 8.13998 0.858315 8.43588 0.858315 8.74441C0.858315 9.05295 0.98088 9.34884 1.19905 9.56701C1.41721 9.78518 1.71311 9.90774 2.02165 9.90774Z" fill="#252160"/>
</svg>
