<svg width="46" height="35" viewBox="0 0 46 35" fill="none" xmlns="http://www.w3.org/2000/svg">
<path d="M41.5425 3.6975C44.1175 6.4325 45.5 9.5 45.5 14.4725C45.5 23.2225 39.3575 31.065 30.425 34.9425L28.1925 31.4975C36.53 26.9875 38.16 21.135 38.81 17.445C37.4675 18.14 35.71 18.3825 33.9875 18.2225C29.4775 17.805 25.9225 14.1025 25.9225 9.5C25.9225 7.17936 26.8444 4.95376 28.4853 3.31281C30.1263 1.67187 32.3519 0.75 34.6725 0.75C37.355 0.75 39.92 1.975 41.5425 3.6975ZM16.5425 3.6975C19.1175 6.4325 20.5 9.5 20.5 14.4725C20.5 23.2225 14.3575 31.065 5.425 34.9425L3.1925 31.4975C11.53 26.9875 13.16 21.135 13.81 17.445C12.4675 18.14 10.71 18.3825 8.9875 18.2225C4.4775 17.805 0.922501 14.1025 0.922501 9.5C0.922501 7.17936 1.84437 4.95376 3.48531 3.31281C5.12626 1.67187 7.35186 0.75 9.6725 0.75C12.355 0.75 14.92 1.975 16.5425 3.6975Z" fill="#32B5FF"/>
</svg>
