<svg width="26" height="26" viewBox="0 0 26 26" fill="none" xmlns="http://www.w3.org/2000/svg">
<path d="M21.0413 21.4747V23.6858L19.164 22.4655L14.1681 13.0787C14.8565 12.8597 15.4823 12.5051 16.0246 12.0358L21.0413 21.4747ZM15.8265 8.04117C15.8265 8.87101 15.4968 9.66687 14.91 10.2537C14.3232 10.8404 13.5274 11.1701 12.6975 11.1701H12.2386L6.23108 22.4655L4.35373 23.6858V21.4747L10.3926 10.1271C9.24528 8.84426 9.34958 6.86261 10.6429 5.70491C11.2061 5.20428 11.9362 4.91224 12.6975 4.91224V2.82629C12.9741 2.82629 13.2394 2.93618 13.435 3.13177C13.6306 3.32737 13.7405 3.59265 13.7405 3.86927V5.09998C14.9921 5.53803 15.8265 6.71659 15.8265 8.04117ZM13.7405 8.04117C13.7405 7.76455 13.6306 7.49927 13.435 7.30367C13.2394 7.10808 12.9741 6.99819 12.6975 6.99819C12.4209 6.99819 12.1556 7.10808 11.96 7.30367C11.7644 7.49927 11.6546 7.76455 11.6546 8.04117C11.6546 8.31778 11.7644 8.58307 11.96 8.77866C12.1556 8.97426 12.4209 9.08414 12.6975 9.08414C12.9741 9.08414 13.2394 8.97426 13.435 8.77866C13.6306 8.58307 13.7405 8.31778 13.7405 8.04117Z" fill="#252160"/>
</svg>
