<svg width="26" height="26" viewBox="0 0 26 26" fill="none" xmlns="http://www.w3.org/2000/svg">
<path d="M12.6975 14.1193V20.3771H4.87522V14.1193H12.6975ZM12.6975 12.5548H4.87522C4.4603 12.5548 4.06237 12.7196 3.76898 13.013C3.47559 13.3064 3.31076 13.7044 3.31076 14.1193V20.3771C3.31076 20.792 3.47559 21.19 3.76898 21.4834C4.06237 21.7768 4.4603 21.9416 4.87522 21.9416H12.6975C13.1125 21.9416 13.5104 21.7768 13.8038 21.4834C14.0972 21.19 14.262 20.792 14.262 20.3771V14.1193C14.262 13.7044 14.0972 13.3064 13.8038 13.013C13.5104 12.7196 13.1125 12.5548 12.6975 12.5548Z" fill="#252160"/>
<path d="M21.3021 5.51478V9.42594H13.4798V5.51478H21.3021ZM21.3021 3.95032H13.4798C13.0649 3.95032 12.667 4.11514 12.3736 4.40854C12.0802 4.70193 11.9154 5.09986 11.9154 5.51478V9.42594C11.9154 9.84086 12.0802 10.2388 12.3736 10.5322C12.667 10.8256 13.0649 10.9904 13.4798 10.9904H21.3021C21.7171 10.9904 22.115 10.8256 22.4084 10.5322C22.7018 10.2388 22.8666 9.84086 22.8666 9.42594V5.51478C22.8666 5.09986 22.7018 4.70193 22.4084 4.40854C22.115 4.11514 21.7171 3.95032 21.3021 3.95032Z" fill="#252160"/>
<path d="M21.3021 14.1193V18.0304H17.3909V14.1193H21.3021ZM21.3021 12.5548H17.3909C16.976 12.5548 16.5781 12.7196 16.2847 13.013C15.9913 13.3064 15.8265 13.7044 15.8265 14.1193V18.0304C15.8265 18.4453 15.9913 18.8433 16.2847 19.1367C16.5781 19.4301 16.976 19.5949 17.3909 19.5949H21.3021C21.717 19.5949 22.1149 19.4301 22.4083 19.1367C22.7017 18.8433 22.8666 18.4453 22.8666 18.0304V14.1193C22.8666 13.7044 22.7017 13.3064 22.4083 13.013C22.1149 12.7196 21.717 12.5548 21.3021 12.5548Z" fill="#252160"/>
<path d="M8.78638 5.51478V9.42594H4.87522V5.51478H8.78638ZM8.78638 3.95032H4.87522C4.4603 3.95032 4.06237 4.11514 3.76898 4.40854C3.47559 4.70193 3.31076 5.09986 3.31076 5.51478V9.42594C3.31076 9.84086 3.47559 10.2388 3.76898 10.5322C4.06237 10.8256 4.4603 10.9904 4.87522 10.9904H8.78638C9.2013 10.9904 9.59923 10.8256 9.89262 10.5322C10.186 10.2388 10.3508 9.84086 10.3508 9.42594V5.51478C10.3508 5.09986 10.186 4.70193 9.89262 4.40854C9.59923 4.11514 9.2013 3.95032 8.78638 3.95032Z" fill="#252160"/>
</svg>
