<svg width="21" height="19" viewBox="0 0 21 19" fill="none" xmlns="http://www.w3.org/2000/svg">
<path d="M0.75 3.375H20.25C20.625 3.375 21 3.04688 21 2.625V0.75C21 0.375 20.625 0 20.25 0H0.75C0.328125 0 0 0.375 0 0.75V2.625C0 3.04688 0.328125 3.375 0.75 3.375ZM0.75 10.875H20.25C20.625 10.875 21 10.5469 21 10.125V8.25C21 7.875 20.625 7.5 20.25 7.5H0.75C0.328125 7.5 0 7.875 0 8.25V10.125C0 10.5469 0.328125 10.875 0.75 10.875ZM0.75 18.375H20.25C20.625 18.375 21 18.0469 21 17.625V15.75C21 15.375 20.625 15 20.25 15H0.75C0.328125 15 0 15.375 0 15.75V17.625C0 18.0469 0.328125 18.375 0.75 18.375Z" fill="#252160"/>
</svg>
