<svg width="21" height="22" viewBox="0 0 21 22" fill="none" xmlns="http://www.w3.org/2000/svg">
<path d="M10.5 1.83325C12.8774 1.83325 13.174 1.84242 14.1067 1.88825C15.0386 1.93409 15.673 2.08717 16.2312 2.3145C16.8087 2.54734 17.2953 2.86267 17.7817 3.37142C18.2267 3.82966 18.571 4.38396 18.7906 4.99575C19.0068 5.57967 19.1538 6.24517 19.1975 7.22142C19.2386 8.19859 19.25 8.50934 19.25 10.9999C19.25 13.4905 19.2413 13.8013 19.1975 14.7784C19.1538 15.7547 19.0068 16.4193 18.7906 17.0041C18.5716 17.6162 18.2272 18.1707 17.7817 18.6284C17.3442 19.0944 16.8151 19.455 16.2312 19.6853C15.6739 19.9118 15.0386 20.0658 14.1067 20.1116C13.174 20.1547 12.8774 20.1666 10.5 20.1666C8.12262 20.1666 7.826 20.1574 6.89325 20.1116C5.96137 20.0658 5.327 19.9118 4.76875 19.6853C4.18454 19.4557 3.65534 19.095 3.21825 18.6284C2.77323 18.1703 2.42894 17.6159 2.20938 17.0041C1.99238 16.4202 1.84625 15.7547 1.8025 14.7784C1.76137 13.8013 1.75 13.4905 1.75 10.9999C1.75 8.50934 1.75875 8.19859 1.8025 7.22142C1.84625 6.24425 1.99238 5.58059 2.20938 4.99575C2.42833 4.38358 2.7727 3.82913 3.21825 3.37142C3.65546 2.90505 4.18462 2.54434 4.76875 2.3145C5.327 2.08717 5.9605 1.93409 6.89325 1.88825C7.826 1.84517 8.12262 1.83325 10.5 1.83325ZM10.5 6.41659C9.33968 6.41659 8.22688 6.89947 7.40641 7.75901C6.58594 8.61855 6.125 9.78434 6.125 10.9999C6.125 12.2155 6.58594 13.3813 7.40641 14.2408C8.22688 15.1004 9.33968 15.5833 10.5 15.5833C11.6603 15.5833 12.7731 15.1004 13.5936 14.2408C14.4141 13.3813 14.875 12.2155 14.875 10.9999C14.875 9.78434 14.4141 8.61855 13.5936 7.75901C12.7731 6.89947 11.6603 6.41659 10.5 6.41659ZM16.1875 6.18742C16.1875 5.88352 16.0723 5.59208 15.8671 5.37719C15.662 5.16231 15.3838 5.04159 15.0938 5.04159C14.8037 5.04159 14.5255 5.16231 14.3204 5.37719C14.1152 5.59208 14 5.88352 14 6.18742C14 6.49131 14.1152 6.78276 14.3204 6.99765C14.5255 7.21253 14.8037 7.33325 15.0938 7.33325C15.3838 7.33325 15.662 7.21253 15.8671 6.99765C16.0723 6.78276 16.1875 6.49131 16.1875 6.18742ZM10.5 8.24992C11.1962 8.24992 11.8639 8.53965 12.3562 9.05537C12.8484 9.5711 13.125 10.2706 13.125 10.9999C13.125 11.7293 12.8484 12.4287 12.3562 12.9445C11.8639 13.4602 11.1962 13.7499 10.5 13.7499C9.80381 13.7499 9.13613 13.4602 8.64384 12.9445C8.15156 12.4287 7.875 11.7293 7.875 10.9999C7.875 10.2706 8.15156 9.5711 8.64384 9.05537C9.13613 8.53965 9.80381 8.24992 10.5 8.24992Z" fill="#0C0C0C"/>
</svg>
