<svg width="326" height="61" viewBox="0 0 326 61" fill="none" xmlns="http://www.w3.org/2000/svg">
<path d="M128.841 11.9788H122.012V42.79H140.917V36.7527H128.841V11.9788Z" fill="#252160"/>
<path d="M141.569 32.3393C141.569 38.918 145.983 43.2898 152.645 43.2898C159.266 43.2898 163.68 38.918 163.68 32.3393C163.68 25.7606 159.266 21.3471 152.645 21.3471C145.983 21.3471 141.569 25.7606 141.569 32.3393ZM148.023 32.2976C148.023 29.1749 149.855 27.0931 152.645 27.0931C155.393 27.0931 157.226 29.1749 157.226 32.2976C157.226 35.4621 155.393 37.5439 152.645 37.5439C149.855 37.5439 148.023 35.4621 148.023 32.2976Z" fill="#252160"/>
<path d="M164.712 32.0061C164.712 38.2931 168.793 42.54 174.58 42.54C177.371 42.54 179.786 41.5408 180.993 39.917V42.7899C180.993 45.6629 179.203 47.5781 176.038 47.5781C173.206 47.5781 171.249 46.2458 171.124 43.8725H164.628C165.211 49.5768 169.625 53.4072 175.663 53.4072C182.784 53.4072 187.281 48.7857 187.281 41.4575V21.9716H181.493L181.16 24.095C179.994 22.3879 177.537 21.2638 174.706 21.2638C168.876 21.2638 164.712 25.6356 164.712 32.0061ZM171.208 31.8395C171.208 28.8415 173.206 26.843 175.746 26.843C178.703 26.843 180.868 28.8 180.868 31.8395C180.868 34.879 178.745 36.9608 175.788 36.9608C173.248 36.9608 171.208 34.879 171.208 31.8395Z" fill="#252160"/>
<path d="M189.15 32.3393C189.15 38.918 193.564 43.2898 200.227 43.2898C206.848 43.2898 211.261 38.918 211.261 32.3393C211.261 25.7606 206.848 21.3471 200.227 21.3471C193.564 21.3471 189.15 25.7606 189.15 32.3393ZM195.604 32.2976C195.604 29.1749 197.436 27.0931 200.227 27.0931C202.974 27.0931 204.806 29.1749 204.806 32.2976C204.806 35.4621 202.974 37.5439 200.227 37.5439C197.436 37.5439 195.604 35.4621 195.604 32.2976Z" fill="#252160"/>
<path d="M216.79 18.7239C218.788 18.7239 220.412 17.1001 220.412 15.0599C220.412 13.0197 218.788 11.4375 216.79 11.4375C214.75 11.4375 213.126 13.0197 213.126 15.0599C213.126 17.1001 214.75 18.7239 216.79 18.7239ZM213.541 42.79H219.997V21.9716H213.541V42.79Z" fill="#252160"/>
<path d="M223.754 52.7826H230.084V40.708C231.29 42.2902 234.039 43.3727 236.912 43.3727C243.116 43.3727 246.864 38.6262 246.698 32.0475C246.53 25.344 242.658 21.3052 236.87 21.3052C233.914 21.3052 231.124 22.596 229.958 24.5114L229.624 21.9715H223.754V52.7826ZM230.207 32.3806C230.207 29.2579 232.289 27.1761 235.288 27.1761C238.327 27.1761 240.243 29.2995 240.243 32.3806C240.243 35.4618 238.327 37.5852 235.288 37.5852C232.289 37.5852 230.207 35.5034 230.207 32.3806Z" fill="#252160"/>
<path d="M247.381 36.2112C247.546 40.4165 250.879 43.331 256.125 43.331C261.164 43.331 264.662 40.6663 264.662 36.3778C264.662 33.2967 262.83 31.2564 259.414 30.4236L255.71 29.5076C254.377 29.1746 253.544 28.8414 253.544 27.7588C253.544 26.6763 254.417 25.9685 255.71 25.9685C257.166 25.9685 258.123 26.9262 258.083 28.3418H263.871C263.703 24.0115 260.415 21.3052 255.834 21.3052C251.213 21.3052 247.756 24.0533 247.756 28.2169C247.756 31.0065 249.297 33.2967 253.418 34.3793L257.082 35.3368C258.165 35.6282 258.623 36.1279 258.623 36.8356C258.623 37.8766 257.666 38.5429 256.042 38.5429C254.167 38.5429 253.169 37.6685 253.169 36.2112H247.381Z" fill="#252160"/>
<path d="M274.477 43.3312C277.018 43.3312 279.557 42.1653 280.848 40.4583L281.266 42.79H287.303V21.9717H280.89V32.7973C280.89 35.9199 279.975 37.6269 277.018 37.6269C274.727 37.6269 273.228 36.5861 273.228 32.714V21.9717H266.815V35.0455C266.815 40.0004 269.564 43.3312 274.477 43.3312Z" fill="#252160"/>
<path d="M297.472 42.7899V31.4232C297.472 27.9256 299.346 26.9263 301.178 26.9263C303.218 26.9263 304.551 28.1755 304.551 30.7569V42.7899H310.88V31.4232C310.88 27.884 312.712 26.8848 314.544 26.8848C316.584 26.8848 317.959 28.1337 317.959 30.7569V42.7899H324.206V29.1747C324.206 24.4282 321.707 21.2638 316.334 21.2638C313.337 21.2638 310.88 22.7209 309.797 24.9694C308.549 22.7209 306.383 21.2638 302.926 21.2638C300.637 21.2638 298.513 22.3046 297.264 23.9701L297.015 21.9716H291.017V42.7899H297.472Z" fill="#252160"/>
<path d="M0 30.5C0 13.6553 13.6566 0 30.5029 0H70.538C87.3844 0 101.041 13.6553 101.041 30.5V61H30.5029C13.6566 61 0 47.3448 0 30.5Z" fill="#252160"/>
<path d="M70.538 11.4375H30.5029C19.974 11.4375 11.4386 19.9721 11.4386 30.5C11.4386 41.0279 19.974 49.5625 30.5029 49.5625H70.538C81.0669 49.5625 89.6023 41.0279 89.6023 30.5C89.6023 19.9721 81.0669 11.4375 70.538 11.4375Z" fill="#A5B4FC"/>
<path d="M30.5029 40.0312C35.7674 40.0312 40.0351 35.764 40.0351 30.5C40.0351 25.236 35.7674 20.9688 30.5029 20.9688C25.2385 20.9688 20.9708 25.236 20.9708 30.5C20.9708 35.764 25.2385 40.0312 30.5029 40.0312Z" fill="black"/>
<path d="M26.6901 28.5938C27.743 28.5938 28.5965 27.7403 28.5965 26.6875C28.5965 25.6347 27.743 24.7812 26.6901 24.7812C25.6372 24.7812 24.7836 25.6347 24.7836 26.6875C24.7836 27.7403 25.6372 28.5938 26.6901 28.5938Z" fill="white"/>
<path d="M72.4445 40.0312C77.7089 40.0312 81.9766 35.764 81.9766 30.5C81.9766 25.236 77.7089 20.9688 72.4445 20.9688C67.18 20.9688 62.9123 25.236 62.9123 30.5C62.9123 35.764 67.18 40.0312 72.4445 40.0312Z" fill="black"/>
<path d="M68.6316 28.5938C69.6845 28.5938 70.538 27.7403 70.538 26.6875C70.538 25.6347 69.6845 24.7812 68.6316 24.7812C67.5787 24.7812 66.7252 25.6347 66.7252 26.6875C66.7252 27.7403 67.5787 28.5938 68.6316 28.5938Z" fill="white"/>
</svg>
