<svg width="50" height="45" viewBox="0 0 50 45" fill="none" xmlns="http://www.w3.org/2000/svg">
<path d="M44.3437 22.5341V21.9585C44.3437 17.4145 40.6468 13.7178 36.1032 13.7178H26.3276V10.1968C28.5454 9.60868 30.185 7.58502 30.185 5.18486C30.185 2.32564 27.8591 0 25.0001 0C22.1411 0 19.815 2.32564 19.815 5.18486C19.815 7.58482 21.4546 9.60868 23.6722 10.1968V13.7178H13.897C9.35298 13.7178 5.65626 17.4147 5.65626 21.9585V22.5341C2.4382 23.1561 0 25.9941 0 29.3908C0 32.7918 2.4433 35.6316 5.66646 36.2499C5.88137 40.6033 9.49083 44.0794 13.897 44.0794H36.1028C40.5088 44.0794 44.1182 40.6033 44.3333 36.2499C47.5565 35.6318 50 32.7918 50 29.3908C50 25.9941 47.562 23.1561 44.3437 22.5341ZM5.65645 33.5103C3.91732 32.9485 2.65586 31.3146 2.65586 29.3908C2.65586 27.4673 3.91752 25.8335 5.65645 25.2717V33.5103ZM41.6883 35.8385C41.6883 38.9181 39.1826 41.4235 36.103 41.4235H13.8972C10.8174 41.4235 8.31193 38.9181 8.31193 35.8385V21.9587C8.31193 18.8791 10.8174 16.3736 13.8972 16.3736H36.103C39.1826 16.3736 41.6883 18.8791 41.6883 21.9587V35.8385ZM44.3437 33.5103V25.2717C46.0827 25.8335 47.3445 27.4673 47.3445 29.3908C47.3443 31.3146 46.0827 32.9485 44.3437 33.5103Z" fill="#041C3F"/>
<path d="M5.65645 33.5103C3.91731 32.9485 2.65585 31.3147 2.65585 29.3908C2.65585 27.4674 3.91751 25.8335 5.65645 25.2717V33.5103Z" fill="white"/>
<path d="M22.4705 5.18514C22.4705 3.79054 23.6053 2.65576 25.0001 2.65576C26.3947 2.65576 27.5295 3.79054 27.5295 5.18514C27.5295 6.57975 26.3947 7.71453 25.0001 7.71453C23.6053 7.71453 22.4705 6.57975 22.4705 5.18514Z" fill="white"/>
<path d="M25.0001 2.65552C23.9469 2.65552 23.0427 3.30301 22.6627 4.22013C22.9604 4.09699 23.2859 4.02816 23.6275 4.02816C25.0221 4.02816 26.1568 5.16294 26.1568 6.55754C26.1568 6.89913 26.0878 7.22465 25.9647 7.52231C26.882 7.14229 27.5295 6.23791 27.5295 5.1849C27.5295 3.79049 26.3947 2.65552 25.0001 2.65552Z" fill="white"/>
<path d="M41.6883 35.8384C41.6883 38.918 39.1826 41.4234 36.103 41.4234H13.8972C10.8174 41.4234 8.31192 38.918 8.31192 35.8384V21.9586C8.31192 18.879 10.8174 16.3735 13.8972 16.3735H36.103C39.1826 16.3735 41.6883 18.879 41.6883 21.9586V35.8384Z" fill="#3AFFE5"/>
<path d="M36.103 16.3735H31.1568C34.2366 16.3735 36.7421 18.879 36.7421 21.9586V35.8384C36.7421 38.918 34.2366 41.4234 31.1568 41.4234H36.103C39.1826 41.4234 41.6883 38.918 41.6883 35.8384V21.9586C41.6883 18.879 39.1826 16.3735 36.103 16.3735Z" fill="#3AFFE5"/>
<path d="M44.3438 33.5103V25.2717C46.0827 25.8335 47.3445 27.4674 47.3445 29.3908C47.3443 31.3147 46.0827 32.9485 44.3438 33.5103Z" fill="white"/>
<path d="M4.15597 29.3908C4.15597 28.0849 4.73855 26.9136 5.65626 26.1194V25.2717C3.91713 25.8335 2.65567 27.4674 2.65567 29.3908C2.65567 31.3147 3.91732 32.9485 5.65626 33.5103V32.6626C4.73855 31.8684 4.15597 30.697 4.15597 29.3908Z" fill="white"/>
<path d="M44.3438 25.2717V26.1196C45.2615 26.9136 45.844 28.0851 45.844 29.3908C45.844 30.697 45.2615 31.8684 44.3438 32.6624V33.5103C46.0827 32.9485 47.3445 31.3147 47.3445 29.3908C47.3443 27.4676 46.0827 25.8337 44.3438 25.2717Z" fill="white"/>
<path d="M34.6839 27.2607C33.9883 27.2607 33.4224 26.695 33.4224 25.9994C33.4224 25.3039 33.9883 24.7378 34.6839 24.7378C35.3794 24.7378 35.9453 25.3039 35.9453 25.9994C35.9451 26.695 35.3794 27.2607 34.6839 27.2607Z" fill="white"/>
<path d="M15.3163 27.2607C14.6208 27.2607 14.0549 26.695 14.0549 25.9994C14.0549 25.3039 14.6206 24.7378 15.3163 24.7378C16.0119 24.7378 16.5778 25.3039 16.5778 25.9994C16.5778 26.695 16.0119 27.2607 15.3163 27.2607Z" fill="white"/>
<path d="M34.6839 24.738C34.1246 24.738 33.6499 25.1043 33.485 25.6093C33.6079 25.5693 33.7387 25.5469 33.875 25.5469C34.5705 25.5469 35.1365 26.113 35.1365 26.8086C35.1365 26.9447 35.1141 27.0755 35.0741 27.1984C35.5792 27.0337 35.9453 26.5589 35.9453 25.9997C35.9451 25.304 35.3794 24.738 34.6839 24.738Z" fill="white"/>
<path d="M15.3163 24.738C14.7569 24.738 14.2823 25.1043 14.1174 25.6093C14.2404 25.5691 14.3711 25.5469 14.5074 25.5469C15.203 25.5469 15.7689 26.113 15.7689 26.8086C15.7689 26.9447 15.7465 27.0755 15.7065 27.1984C16.2117 27.0337 16.5778 26.5589 16.5778 25.9997C16.5778 25.304 16.0118 24.738 15.3163 24.738Z" fill="white"/>
<path d="M34.6839 22.0828C32.5239 22.0828 30.767 23.8399 30.767 25.9997C30.767 28.1594 32.5239 29.9166 34.6839 29.9166C36.8436 29.9166 38.6008 28.1594 38.6008 25.9997C38.6006 23.8399 36.8435 22.0828 34.6839 22.0828ZM34.6839 27.2608C33.9884 27.2608 33.4224 26.695 33.4224 25.9995C33.4224 25.304 33.9884 24.7378 34.6839 24.7378C35.3794 24.7378 35.9454 25.304 35.9454 25.9995C35.9452 26.695 35.3794 27.2608 34.6839 27.2608Z" fill="#041C3F"/>
<path d="M15.3163 22.0828C13.1564 22.0828 11.3994 23.8399 11.3994 25.9997C11.3994 28.1594 13.1566 29.9166 15.3163 29.9166C17.4761 29.9166 19.2332 28.1594 19.2332 25.9997C19.2332 23.8399 17.4761 22.0828 15.3163 22.0828ZM15.3163 27.2608C14.6208 27.2608 14.0549 26.695 14.0549 25.9995C14.0549 25.304 14.6206 24.7378 15.3163 24.7378C16.0118 24.7378 16.5778 25.304 16.5778 25.9995C16.5778 26.695 16.0118 27.2608 15.3163 27.2608Z" fill="#041C3F"/>
<path d="M28.6182 35.0125H21.382C20.6486 35.0125 20.0543 35.6068 20.0543 36.34C20.0543 37.0734 20.6486 37.6677 21.382 37.6677H28.6182C29.3514 37.6677 29.9457 37.0734 29.9457 36.34C29.9459 35.607 29.3514 35.0125 28.6182 35.0125Z" fill="#69CCBE"/>
<path d="M28.6182 34.0442H21.382C20.6486 34.0442 20.0543 34.6385 20.0543 35.3717C20.0543 36.1051 20.6486 36.6995 21.382 36.6995H28.6182C29.3514 36.6995 29.9457 36.1051 29.9457 35.3717C29.9459 34.6385 29.3514 34.0442 28.6182 34.0442Z" fill="#041C3F"/>
</svg>
