<svg width="22" height="22" viewBox="0 0 22 22" fill="none" xmlns="http://www.w3.org/2000/svg">
<path d="M20.3152 5.1846C19.6153 5.49415 18.8732 5.69745 18.1133 5.78777C18.9143 5.30875 19.5137 4.55486 19.8 3.6666C19.0483 4.11393 18.2242 4.42743 17.3653 4.59702C16.7884 3.97971 16.0237 3.57032 15.19 3.43247C14.3564 3.29462 13.5006 3.43605 12.7556 3.83476C12.0107 4.23348 11.4183 4.86714 11.0707 5.63724C10.723 6.40734 10.6395 7.27073 10.8332 8.09318C9.30884 8.01678 7.81762 7.62066 6.45633 6.93054C5.09504 6.24042 3.8941 5.27173 2.93149 4.08735C2.59075 4.6726 2.4117 5.33789 2.41265 6.0151C2.41265 7.34427 3.08915 8.51852 4.11765 9.20602C3.509 9.18685 2.91373 9.02248 2.38149 8.7266V8.77427C2.38167 9.65949 2.68799 10.5174 3.24851 11.2026C3.80904 11.8877 4.58926 12.358 5.4569 12.5335C4.89188 12.6866 4.29944 12.7092 3.7244 12.5995C3.96903 13.3615 4.44583 14.0279 5.08803 14.5054C5.73023 14.9829 6.50569 15.2476 7.30582 15.2624C6.51059 15.887 5.60007 16.3487 4.62629 16.6211C3.65252 16.8935 2.6346 16.9713 1.63074 16.8501C3.38313 17.9771 5.42308 18.5754 7.50657 18.5734C14.5585 18.5734 18.4149 12.7315 18.4149 7.6651C18.4149 7.5001 18.4103 7.33327 18.403 7.1701C19.1536 6.62759 19.8015 5.95553 20.3161 5.18552L20.3152 5.1846Z" fill="#0C0C0C"/>
</svg>
